<svg width="570" height="384" viewBox="0 0 570 384" fill="none" xmlns="http://www.w3.org/2000/svg">
<path d="M74.3769 384H99.4599C49.2317 335.451 18 267.373 18 192C18 116.627 49.2317 48.5486 99.4599 0H74.3769C28.1747 50.6547 0 118.037 0 192C0 265.963 28.1747 333.345 74.3769 384Z" fill="#FFD8DB"/>
<path d="M426.989 0H394.08C460.795 37.9843 505.784 109.738 505.784 192C505.784 274.262 460.795 346.016 394.08 384H426.989C485.715 340.499 523.784 270.695 523.784 192C523.784 113.305 485.715 43.5014 426.989 0Z" fill="#FFD8DB"/>
<path d="M495.623 384H470.54C520.768 335.451 552 267.373 552 192C552 116.627 520.768 48.5486 470.54 0H495.623C541.825 50.6547 570 118.037 570 192C570 265.963 541.825 333.345 495.623 384Z" fill="#FFD8DB"/>
<path d="M175.921 384H143.011C84.2847 340.499 46.2162 270.695 46.2162 192C46.2162 113.305 84.2847 43.5014 143.011 0H175.92C109.205 37.9843 64.2162 109.738 64.2162 192C64.2162 274.262 109.205 346.016 175.921 384Z" fill="#FFD8DB"/>
<path fill-rule="evenodd" clip-rule="evenodd" d="M285 284.432C336.049 284.432 377.432 243.049 377.432 192C377.432 140.951 336.049 99.5676 285 99.5676C233.951 99.5676 192.568 140.951 192.568 192C192.568 243.049 233.951 284.432 285 284.432ZM285 266.432C326.108 266.432 359.432 233.108 359.432 192C359.432 150.892 326.108 117.568 285 117.568C243.892 117.568 210.568 150.892 210.568 192C210.568 233.108 243.892 266.432 285 266.432Z" fill="#FFD8DB"/>
<path fill-rule="evenodd" clip-rule="evenodd" d="M285 330.649C361.573 330.649 423.649 268.573 423.649 192C423.649 115.426 361.573 53.3513 285 53.3513C208.426 53.3513 146.351 115.426 146.351 192C146.351 268.573 208.426 330.649 285 330.649ZM285 312.649C351.632 312.649 405.649 258.632 405.649 192C405.649 125.368 351.632 71.3513 285 71.3513C218.368 71.3513 164.351 125.368 164.351 192C164.351 258.632 218.368 312.649 285 312.649Z" fill="#FFD8DB"/>
<path fill-rule="evenodd" clip-rule="evenodd" d="M285 376.865C387.098 376.865 469.865 294.098 469.865 192C469.865 89.9019 387.098 7.13513 285 7.13513C182.902 7.13513 100.135 89.9019 100.135 192C100.135 294.098 182.902 376.865 285 376.865ZM285 358.865C377.157 358.865 451.865 284.157 451.865 192C451.865 99.8431 377.157 25.1351 285 25.1351C192.843 25.1351 118.135 99.8431 118.135 192C118.135 284.157 192.843 358.865 285 358.865Z" fill="#FFD8DB"/>
</svg>
