<svg width="338" height="288" viewBox="0 0 338 288" fill="none" xmlns="http://www.w3.org/2000/svg">
<path d="M235.981 287.442H258.308C306.159 257.599 338 204.488 338 143.94C338 83.3925 306.159 30.2815 258.308 0.438538H235.981C289.942 25.6685 327.326 80.4386 327.326 143.94C327.326 207.442 289.942 262.212 235.981 287.442Z" fill="#FFDDEE"/>
<path d="M79.6917 287.442H102.019C48.0584 262.212 10.6737 207.442 10.6737 143.94C10.6737 80.4386 48.0584 25.6685 102.019 0.438538L79.6917 0.438538C31.8409 30.2815 0 83.3925 0 143.94C0 204.488 31.8409 257.599 79.6917 287.442Z" fill="#FFDDEE"/>
<path fill-rule="evenodd" clip-rule="evenodd" d="M169 198.751C199.271 198.751 223.811 174.212 223.811 143.94C223.811 113.669 199.271 89.1295 169 89.1295C138.729 89.1295 114.189 113.669 114.189 143.94C114.189 174.212 138.729 198.751 169 198.751ZM169 188.077C193.376 188.077 213.137 168.317 213.137 143.94C213.137 119.564 193.376 99.8032 169 99.8032C144.624 99.8032 124.863 119.564 124.863 143.94C124.863 168.317 144.624 188.077 169 188.077Z" fill="#FFDDEE"/>
<path fill-rule="evenodd" clip-rule="evenodd" d="M251.216 143.94C251.216 189.347 214.407 226.156 169 226.156C123.593 226.156 86.7838 189.347 86.7838 143.94C86.7838 98.5335 123.593 61.7241 169 61.7241C214.407 61.7241 251.216 98.5335 251.216 143.94ZM240.543 143.94C240.543 183.452 208.512 215.483 169 215.483C129.488 215.483 97.4575 183.452 97.4575 143.94C97.4575 104.428 129.488 72.3977 169 72.3977C208.512 72.3977 240.543 104.428 240.543 143.94Z" fill="#FFDDEE"/>
<path fill-rule="evenodd" clip-rule="evenodd" d="M169 253.562C229.542 253.562 278.622 204.483 278.622 143.94C278.622 83.3979 229.542 34.3187 169 34.3187C108.458 34.3187 59.3784 83.3979 59.3784 143.94C59.3784 204.483 108.458 253.562 169 253.562ZM169 242.888C223.647 242.888 267.948 198.588 267.948 143.94C267.948 89.2929 223.647 44.9924 169 44.9924C114.353 44.9924 70.0521 89.2929 70.0521 143.94C70.0521 198.588 114.353 242.888 169 242.888Z" fill="#FFDDEE"/>
<path fill-rule="evenodd" clip-rule="evenodd" d="M310.595 143.94C310.595 222.141 247.201 285.535 169 285.535C90.7995 285.535 27.4054 222.141 27.4054 143.94C27.4054 65.7397 90.7995 2.34568 169 2.34568C247.201 2.34568 310.595 65.7397 310.595 143.94ZM299.921 143.94C299.921 216.246 241.306 274.861 169 274.861C96.6944 274.861 38.0791 216.246 38.0791 143.94C38.0791 71.6347 96.6944 13.0194 169 13.0194C241.306 13.0194 299.921 71.6347 299.921 143.94Z" fill="#FFDDEE"/>
</svg>
