<svg width="339" height="289" viewBox="0 0 339 289" fill="none" xmlns="http://www.w3.org/2000/svg">
<path d="M236.679 288.432H259.073C307.065 258.5 339 205.232 339 144.505C339 83.7785 307.065 30.5104 259.073 0.579102H236.679C290.799 25.8837 328.295 80.8158 328.295 144.505C328.295 208.195 290.799 263.127 236.679 288.432Z" fill="#D3F5F0"/>
<path d="M79.9275 288.432H102.321C48.2006 263.127 10.7053 208.195 10.7053 144.505C10.7053 80.8158 48.2006 25.8837 102.321 0.579102L79.9275 0.579102C31.9351 30.5104 0 83.7785 0 144.505C0 205.232 31.9351 258.5 79.9275 288.432Z" fill="#D3F5F0"/>
<path fill-rule="evenodd" clip-rule="evenodd" d="M169.5 199.478C199.861 199.478 224.473 174.866 224.473 144.505C224.473 114.145 199.861 89.5325 169.5 89.5325C139.139 89.5325 114.527 114.145 114.527 144.505C114.527 174.866 139.139 199.478 169.5 199.478ZM169.5 188.773C193.948 188.773 213.768 168.954 213.768 144.505C213.768 120.057 193.948 100.238 169.5 100.238C145.052 100.238 125.232 120.057 125.232 144.505C125.232 168.954 145.052 188.773 169.5 188.773Z" fill="#D3F5F0"/>
<path fill-rule="evenodd" clip-rule="evenodd" d="M251.959 144.505C251.959 190.046 215.041 226.965 169.5 226.965C123.959 226.965 87.0405 190.046 87.0405 144.505C87.0405 98.9643 123.959 62.0459 169.5 62.0459C215.041 62.0459 251.959 98.9643 251.959 144.505ZM241.254 144.505C241.254 184.134 209.129 216.26 169.5 216.26C129.871 216.26 97.7458 184.134 97.7458 144.505C97.7458 104.877 129.871 72.7512 169.5 72.7512C209.129 72.7512 241.254 104.877 241.254 144.505Z" fill="#D3F5F0"/>
<path fill-rule="evenodd" clip-rule="evenodd" d="M169.5 254.451C230.221 254.451 279.446 205.227 279.446 144.505C279.446 83.7839 230.221 34.5595 169.5 34.5595C108.779 34.5595 59.5541 83.7839 59.5541 144.505C59.5541 205.227 108.779 254.451 169.5 254.451ZM169.5 243.746C224.309 243.746 268.741 199.315 268.741 144.505C268.741 89.6963 224.309 45.2647 169.5 45.2647C114.691 45.2647 70.2593 89.6963 70.2593 144.505C70.2593 199.315 114.691 243.746 169.5 243.746Z" fill="#D3F5F0"/>
<path fill-rule="evenodd" clip-rule="evenodd" d="M311.514 144.505C311.514 222.937 247.932 286.519 169.5 286.519C91.0681 286.519 27.4865 222.937 27.4865 144.505C27.4865 66.0735 91.0681 2.49189 169.5 2.49189C247.932 2.49189 311.514 66.0735 311.514 144.505ZM300.808 144.505C300.808 217.025 242.02 275.814 169.5 275.814C96.9805 275.814 38.1918 217.025 38.1918 144.505C38.1918 71.9859 96.9805 13.1971 169.5 13.1971C242.02 13.1971 300.808 71.9859 300.808 144.505Z" fill="#D3F5F0"/>
</svg>
