<svg width="375" height="383" viewBox="0 0 375 383" fill="none" xmlns="http://www.w3.org/2000/svg">
<g filter="url(#filter0_dd_4_6)">
<mask id="path-1-inside-1_4_6" fill="white">
<path fill-rule="evenodd" clip-rule="evenodd" d="M363 187.5C363 284.426 284.426 363 187.5 363C90.574 363 12 284.426 12 187.5C12 90.574 90.574 12 187.5 12C284.426 12 363 90.574 363 187.5ZM375 187.5C375 291.053 291.053 375 187.5 375C83.9466 375 0 291.053 0 187.5C0 83.9466 83.9466 0 187.5 0C291.053 0 375 83.9466 375 187.5ZM187.5 334.272C268.56 334.272 334.272 268.56 334.272 187.5C334.272 106.44 268.56 40.7278 187.5 40.7278C106.439 40.7278 40.7273 106.44 40.7273 187.5C40.7273 268.56 106.439 334.272 187.5 334.272ZM187.5 346.272C275.187 346.272 346.272 275.188 346.272 187.5C346.272 99.8125 275.187 28.7278 187.5 28.7278C99.812 28.7278 28.7273 99.8125 28.7273 187.5C28.7273 275.188 99.812 346.272 187.5 346.272ZM305.544 187.5C305.544 252.694 252.694 305.544 187.5 305.544C122.306 305.544 69.4555 252.694 69.4555 187.5C69.4555 122.306 122.306 69.4555 187.5 69.4555C252.694 69.4555 305.544 122.306 305.544 187.5ZM317.544 187.5C317.544 259.322 259.322 317.544 187.5 317.544C115.678 317.544 57.4555 259.322 57.4555 187.5C57.4555 115.678 115.678 57.4555 187.5 57.4555C259.322 57.4555 317.544 115.678 317.544 187.5ZM276.816 187.5C276.816 236.828 236.828 276.817 187.5 276.817C138.171 276.817 98.1828 236.828 98.1828 187.5C98.1828 138.172 138.171 98.1834 187.5 98.1834C236.828 98.1834 276.816 138.172 276.816 187.5ZM288.816 187.5C288.816 243.456 243.455 288.817 187.5 288.817C131.544 288.817 86.1828 243.456 86.1828 187.5C86.1828 131.544 131.544 86.1834 187.5 86.1834C243.455 86.1834 288.816 131.544 288.816 187.5ZM187.5 248.089C220.962 248.089 248.089 220.962 248.089 187.5C248.089 154.038 220.962 126.911 187.5 126.911C154.038 126.911 126.911 154.038 126.911 187.5C126.911 220.962 154.038 248.089 187.5 248.089ZM187.5 260.089C227.59 260.089 260.089 227.59 260.089 187.5C260.089 147.41 227.59 114.911 187.5 114.911C147.41 114.911 114.911 147.41 114.911 187.5C114.911 227.59 147.41 260.089 187.5 260.089ZM219.361 187.5C219.361 205.096 205.096 219.361 187.5 219.361C169.903 219.361 155.638 205.096 155.638 187.5C155.638 169.904 169.903 155.639 187.5 155.639C205.096 155.639 219.361 169.904 219.361 187.5ZM231.361 187.5C231.361 211.724 211.723 231.361 187.5 231.361C163.276 231.361 143.638 211.724 143.638 187.5C143.638 163.276 163.276 143.639 187.5 143.639C211.723 143.639 231.361 163.276 231.361 187.5Z"/>
</mask>
<path fill-rule="evenodd" clip-rule="evenodd" d="M363 187.5C363 284.426 284.426 363 187.5 363C90.574 363 12 284.426 12 187.5C12 90.574 90.574 12 187.5 12C284.426 12 363 90.574 363 187.5ZM375 187.5C375 291.053 291.053 375 187.5 375C83.9466 375 0 291.053 0 187.5C0 83.9466 83.9466 0 187.5 0C291.053 0 375 83.9466 375 187.5ZM187.5 334.272C268.56 334.272 334.272 268.56 334.272 187.5C334.272 106.44 268.56 40.7278 187.5 40.7278C106.439 40.7278 40.7273 106.44 40.7273 187.5C40.7273 268.56 106.439 334.272 187.5 334.272ZM187.5 346.272C275.187 346.272 346.272 275.188 346.272 187.5C346.272 99.8125 275.187 28.7278 187.5 28.7278C99.812 28.7278 28.7273 99.8125 28.7273 187.5C28.7273 275.188 99.812 346.272 187.5 346.272ZM305.544 187.5C305.544 252.694 252.694 305.544 187.5 305.544C122.306 305.544 69.4555 252.694 69.4555 187.5C69.4555 122.306 122.306 69.4555 187.5 69.4555C252.694 69.4555 305.544 122.306 305.544 187.5ZM317.544 187.5C317.544 259.322 259.322 317.544 187.5 317.544C115.678 317.544 57.4555 259.322 57.4555 187.5C57.4555 115.678 115.678 57.4555 187.5 57.4555C259.322 57.4555 317.544 115.678 317.544 187.5ZM276.816 187.5C276.816 236.828 236.828 276.817 187.5 276.817C138.171 276.817 98.1828 236.828 98.1828 187.5C98.1828 138.172 138.171 98.1834 187.5 98.1834C236.828 98.1834 276.816 138.172 276.816 187.5ZM288.816 187.5C288.816 243.456 243.455 288.817 187.5 288.817C131.544 288.817 86.1828 243.456 86.1828 187.5C86.1828 131.544 131.544 86.1834 187.5 86.1834C243.455 86.1834 288.816 131.544 288.816 187.5ZM187.5 248.089C220.962 248.089 248.089 220.962 248.089 187.5C248.089 154.038 220.962 126.911 187.5 126.911C154.038 126.911 126.911 154.038 126.911 187.5C126.911 220.962 154.038 248.089 187.5 248.089ZM187.5 260.089C227.59 260.089 260.089 227.59 260.089 187.5C260.089 147.41 227.59 114.911 187.5 114.911C147.41 114.911 114.911 147.41 114.911 187.5C114.911 227.59 147.41 260.089 187.5 260.089ZM219.361 187.5C219.361 205.096 205.096 219.361 187.5 219.361C169.903 219.361 155.638 205.096 155.638 187.5C155.638 169.904 169.903 155.639 187.5 155.639C205.096 155.639 219.361 169.904 219.361 187.5ZM231.361 187.5C231.361 211.724 211.723 231.361 187.5 231.361C163.276 231.361 143.638 211.724 143.638 187.5C143.638 163.276 163.276 143.639 187.5 143.639C211.723 143.639 231.361 163.276 231.361 187.5Z" fill="url(#paint0_linear_4_6)" shape-rendering="crispEdges"/>
<path d="M187.5 364C284.978 364 364 284.978 364 187.5H362C362 283.874 283.874 362 187.5 362V364ZM11 187.5C11 284.978 90.0217 364 187.5 364V362C91.1263 362 13 283.874 13 187.5H11ZM187.5 11C90.0217 11 11 90.0217 11 187.5H13C13 91.1263 91.1263 13 187.5 13V11ZM364 187.5C364 90.0217 284.978 11 187.5 11V13C283.874 13 362 91.1263 362 187.5H364ZM187.5 376C291.606 376 376 291.606 376 187.5H374C374 290.501 290.501 374 187.5 374V376ZM-1 187.5C-1 291.606 83.3943 376 187.5 376V374C84.4989 374 1 290.501 1 187.5H-1ZM187.5 -1C83.3943 -1 -1 83.3943 -1 187.5H1C1 84.4989 84.4989 1 187.5 1V-1ZM376 187.5C376 83.3943 291.606 -1 187.5 -1V1C290.501 1 374 84.4989 374 187.5H376ZM333.272 187.5C333.272 268.008 268.007 333.272 187.5 333.272V335.272C269.112 335.272 335.272 269.112 335.272 187.5H333.272ZM187.5 41.7278C268.007 41.7278 333.272 106.992 333.272 187.5H335.272C335.272 105.888 269.112 39.7278 187.5 39.7278V41.7278ZM41.7273 187.5C41.7273 106.992 106.992 41.7278 187.5 41.7278V39.7278C105.887 39.7278 39.7273 105.888 39.7273 187.5H41.7273ZM187.5 333.272C106.992 333.272 41.7273 268.008 41.7273 187.5H39.7273C39.7273 269.112 105.887 335.272 187.5 335.272V333.272ZM345.272 187.5C345.272 274.635 274.635 345.272 187.5 345.272V347.272C275.739 347.272 347.272 275.74 347.272 187.5H345.272ZM187.5 29.7278C274.635 29.7278 345.272 100.365 345.272 187.5H347.272C347.272 99.2603 275.739 27.7278 187.5 27.7278V29.7278ZM29.7273 187.5C29.7273 100.365 100.364 29.7278 187.5 29.7278V27.7278C99.2598 27.7278 27.7273 99.2603 27.7273 187.5H29.7273ZM187.5 345.272C100.364 345.272 29.7273 274.635 29.7273 187.5H27.7273C27.7273 275.74 99.2598 347.272 187.5 347.272V345.272ZM187.5 306.544C253.246 306.544 306.544 253.246 306.544 187.5H304.544C304.544 252.142 252.142 304.544 187.5 304.544V306.544ZM68.4555 187.5C68.4555 253.246 121.754 306.544 187.5 306.544V304.544C122.858 304.544 70.4555 252.142 70.4555 187.5H68.4555ZM187.5 68.4555C121.754 68.4555 68.4555 121.754 68.4555 187.5H70.4555C70.4555 122.858 122.858 70.4555 187.5 70.4555V68.4555ZM306.544 187.5C306.544 121.754 253.246 68.4555 187.5 68.4555V70.4555C252.142 70.4555 304.544 122.858 304.544 187.5H306.544ZM187.5 318.544C259.874 318.544 318.544 259.874 318.544 187.5H316.544C316.544 258.769 258.769 316.544 187.5 316.544V318.544ZM56.4555 187.5C56.4555 259.874 115.126 318.544 187.5 318.544V316.544C116.231 316.544 58.4555 258.769 58.4555 187.5H56.4555ZM187.5 56.4555C115.126 56.4555 56.4555 115.126 56.4555 187.5H58.4555C58.4555 116.231 116.231 58.4555 187.5 58.4555V56.4555ZM318.544 187.5C318.544 115.126 259.874 56.4555 187.5 56.4555V58.4555C258.769 58.4555 316.544 116.231 316.544 187.5H318.544ZM187.5 277.817C237.38 277.817 277.816 237.381 277.816 187.5H275.816C275.816 236.276 236.275 275.817 187.5 275.817V277.817ZM97.1828 187.5C97.1828 237.381 137.619 277.817 187.5 277.817V275.817C138.724 275.817 99.1828 236.276 99.1828 187.5H97.1828ZM187.5 97.1834C137.619 97.1834 97.1828 137.62 97.1828 187.5H99.1828C99.1828 138.724 138.724 99.1834 187.5 99.1834V97.1834ZM277.816 187.5C277.816 137.62 237.38 97.1834 187.5 97.1834V99.1834C236.275 99.1834 275.816 138.724 275.816 187.5H277.816ZM187.5 289.817C244.007 289.817 289.816 244.008 289.816 187.5H287.816C287.816 242.903 242.903 287.817 187.5 287.817V289.817ZM85.1828 187.5C85.1828 244.008 130.992 289.817 187.5 289.817V287.817C132.096 287.817 87.1828 242.903 87.1828 187.5H85.1828ZM187.5 85.1834C130.992 85.1834 85.1828 130.992 85.1828 187.5H87.1828C87.1828 132.097 132.096 87.1834 187.5 87.1834V85.1834ZM289.816 187.5C289.816 130.992 244.007 85.1834 187.5 85.1834V87.1834C242.903 87.1834 287.816 132.097 287.816 187.5H289.816ZM247.089 187.5C247.089 220.41 220.41 247.089 187.5 247.089V249.089C221.515 249.089 249.089 221.515 249.089 187.5H247.089ZM187.5 127.911C220.41 127.911 247.089 154.59 247.089 187.5H249.089C249.089 153.485 221.515 125.911 187.5 125.911V127.911ZM127.911 187.5C127.911 154.59 154.59 127.911 187.5 127.911V125.911C153.485 125.911 125.911 153.485 125.911 187.5H127.911ZM187.5 247.089C154.59 247.089 127.911 220.41 127.911 187.5H125.911C125.911 221.515 153.485 249.089 187.5 249.089V247.089ZM259.089 187.5C259.089 227.037 227.037 259.089 187.5 259.089V261.089C228.142 261.089 261.089 228.142 261.089 187.5H259.089ZM187.5 115.911C227.037 115.911 259.089 147.962 259.089 187.5H261.089C261.089 146.858 228.142 113.911 187.5 113.911V115.911ZM115.911 187.5C115.911 147.962 147.963 115.911 187.5 115.911V113.911C146.858 113.911 113.911 146.858 113.911 187.5H115.911ZM187.5 259.089C147.963 259.089 115.911 227.037 115.911 187.5H113.911C113.911 228.142 146.858 261.089 187.5 261.089V259.089ZM187.5 220.361C205.648 220.361 220.361 205.649 220.361 187.5H218.361C218.361 204.544 204.544 218.361 187.5 218.361V220.361ZM154.638 187.5C154.638 205.649 169.351 220.361 187.5 220.361V218.361C170.455 218.361 156.638 204.544 156.638 187.5H154.638ZM187.5 154.639C169.351 154.639 154.638 169.351 154.638 187.5H156.638C156.638 170.456 170.455 156.639 187.5 156.639V154.639ZM220.361 187.5C220.361 169.351 205.648 154.639 187.5 154.639V156.639C204.544 156.639 218.361 170.456 218.361 187.5H220.361ZM187.5 232.361C212.276 232.361 232.361 212.276 232.361 187.5H230.361C230.361 211.172 211.171 230.361 187.5 230.361V232.361ZM142.638 187.5C142.638 212.276 162.723 232.361 187.5 232.361V230.361C163.828 230.361 144.638 211.172 144.638 187.5H142.638ZM187.5 142.639C162.723 142.639 142.638 162.724 142.638 187.5H144.638C144.638 163.828 163.828 144.639 187.5 144.639V142.639ZM232.361 187.5C232.361 162.724 212.276 142.639 187.5 142.639V144.639C211.171 144.639 230.361 163.828 230.361 187.5H232.361Z" fill="black" mask="url(#path-1-inside-1_4_6)"/>
</g>
<defs>
<filter id="filter0_dd_4_6" x="-4" y="0" width="383" height="383" filterUnits="userSpaceOnUse" color-interpolation-filters="sRGB">
<feFlood flood-opacity="0" result="BackgroundImageFix"/>
<feColorMatrix in="SourceAlpha" type="matrix" values="0 0 0 0 0 0 0 0 0 0 0 0 0 0 0 0 0 0 127 0" result="hardAlpha"/>
<feOffset dy="4"/>
<feGaussianBlur stdDeviation="2"/>
<feComposite in2="hardAlpha" operator="out"/>
<feColorMatrix type="matrix" values="0 0 0 0 0 0 0 0 0 0 0 0 0 0 0 0 0 0 0.25 0"/>
<feBlend mode="normal" in2="BackgroundImageFix" result="effect1_dropShadow_4_6"/>
<feColorMatrix in="SourceAlpha" type="matrix" values="0 0 0 0 0 0 0 0 0 0 0 0 0 0 0 0 0 0 127 0" result="hardAlpha"/>
<feOffset dy="4"/>
<feGaussianBlur stdDeviation="2"/>
<feComposite in2="hardAlpha" operator="out"/>
<feColorMatrix type="matrix" values="0 0 0 0 0 0 0 0 0 0 0 0 0 0 0 0 0 0 0.25 0"/>
<feBlend mode="normal" in2="effect1_dropShadow_4_6" result="effect2_dropShadow_4_6"/>
<feBlend mode="normal" in="SourceGraphic" in2="effect2_dropShadow_4_6" result="shape"/>
</filter>
<linearGradient id="paint0_linear_4_6" x1="187.5" y1="0" x2="187.5" y2="375" gradientUnits="userSpaceOnUse">
<stop stop-color="#02B5EA"/>
<stop offset="1" stop-color="#02B5EA" stop-opacity="0.15"/>
</linearGradient>
</defs>
</svg>
