<svg width="339" height="302" viewBox="0 0 339 302" fill="none" xmlns="http://www.w3.org/2000/svg">
<rect width="339" height="302" rx="12" fill="#E3FFF3"/>
<path d="M217.284 302H246.236C301.286 274.034 339 216.916 339 151C339 85.0841 301.286 27.9664 246.236 0H217.284C281.471 20.246 328.005 80.195 328.005 151C328.005 221.805 281.471 281.754 217.284 302Z" fill="#CAF5E3"/>
<path d="M92.7637 302H121.716C57.5285 281.754 10.9946 221.805 10.9946 151C10.9946 80.195 57.5285 20.246 121.716 0H92.7637C37.7135 27.9664 0 85.0841 0 151C0 216.916 37.7135 274.034 92.7637 302Z" fill="#CAF5E3"/>
<path fill-rule="evenodd" clip-rule="evenodd" d="M169.5 205.909C199.861 205.909 224.473 181.325 224.473 151C224.473 120.675 199.861 96.0909 169.5 96.0909C139.139 96.0909 114.527 120.675 114.527 151C114.527 181.325 139.139 205.909 169.5 205.909ZM169.5 194.927C193.789 194.927 213.478 175.26 213.478 151C213.478 126.74 193.789 107.073 169.5 107.073C145.211 107.073 125.522 126.74 125.522 151C125.522 175.26 145.211 194.927 169.5 194.927Z" fill="#CAF5E3"/>
<path fill-rule="evenodd" clip-rule="evenodd" d="M251.959 151C251.959 196.488 215.041 233.364 169.5 233.364C123.959 233.364 87.0405 196.488 87.0405 151C87.0405 105.512 123.959 68.6364 169.5 68.6364C215.041 68.6364 251.959 105.512 251.959 151ZM240.965 151C240.965 190.423 208.969 222.382 169.5 222.382C130.031 222.382 98.0351 190.423 98.0351 151C98.0351 111.577 130.031 79.6182 169.5 79.6182C208.969 79.6182 240.965 111.577 240.965 151Z" fill="#CAF5E3"/>
<path fill-rule="evenodd" clip-rule="evenodd" d="M169.5 260.818C230.221 260.818 279.446 211.651 279.446 151C279.446 90.3491 230.221 41.1818 169.5 41.1818C108.779 41.1818 59.5541 90.3491 59.5541 151C59.5541 211.651 108.779 260.818 169.5 260.818ZM169.5 249.836C224.149 249.836 268.451 205.586 268.451 151C268.451 96.4142 224.149 52.1636 169.5 52.1636C114.851 52.1636 70.5486 96.4142 70.5486 151C70.5486 205.586 114.851 249.836 169.5 249.836Z" fill="#CAF5E3"/>
<path fill-rule="evenodd" clip-rule="evenodd" d="M311.514 151C311.514 229.341 247.932 292.848 169.5 292.848C91.0681 292.848 27.4865 229.341 27.4865 151C27.4865 72.6592 91.0681 9.15152 169.5 9.15152C247.932 9.15152 311.514 72.6592 311.514 151ZM300.519 151C300.519 223.276 241.86 281.867 169.5 281.867C97.1402 281.867 38.4811 223.276 38.4811 151C38.4811 78.7243 97.1402 20.1333 169.5 20.1333C241.86 20.1333 300.519 78.7243 300.519 151Z" fill="#CAF5E3"/>
</svg>
